<svg viewBox="0 0 70 71" fill="none" xmlns="http://www.w3.org/2000/svg">
<path d="M48.8948 56.5105L46.795 47.396C46.345 49.067 45.5951 50.8899 44.0953 52.1052C40.9456 54.9914 37.9459 56.3586 35.0962 56.3586H24.4474V39.193L20.0979 56.5105H14.9984L25.1973 15.3434H20.9978V11.8495C21.1477 11.3938 21.4477 10.938 22.0477 10.7861H22.1976H47.0949H47.2449C47.8449 10.938 48.1449 11.3938 48.2948 11.8495V15.3434H44.2453L54.2942 56.5105H48.8948ZM35.8462 51.4975C36.5961 51.3456 42.4455 49.9784 42.4455 43.4464C42.4455 37.0662 36.5961 35.5472 35.8462 35.3953H29.3969V51.3456H35.8462V51.4975ZM36.1461 30.5342C36.4461 30.5342 40.1957 30.838 43.6453 34.4838L41.6956 26.4327C41.6956 26.4327 41.5455 25.6731 41.0956 25.6731H27.897C27.897 25.6731 27.5971 25.825 27.4471 26.2808C27.1471 27.1922 26.6972 29.3189 26.3972 30.6861H36.1461V30.5342ZM40.1957 20.5083C39.8958 19.293 39.4458 17.4701 39.2958 16.2548C39.1458 15.6472 38.9958 15.3434 38.8458 15.3434H30.5967C30.1468 15.3434 30.1468 15.4953 30.1468 15.6472V15.7991L28.9469 20.5083H40.1957Z" fill="#FCF5F3"/>
<path d="M34.6463 70.1824C15.5983 70.1824 0 54.5357 0 35.0912C0 15.6467 15.4483 0 34.6463 0C52.0444 0 66.7428 13.2162 68.9926 30.6858L69.1426 31.4454H64.3431L64.1931 30.8377C62.2433 16.1025 49.4947 4.86112 34.6463 4.86112C18.1481 4.86112 4.7995 18.3811 4.7995 35.0912C4.7995 51.8013 18.1481 65.3213 34.6463 65.3213C49.4947 65.3213 62.0934 54.2318 64.1931 39.3447L64.3431 38.737H69.1426L68.9926 39.6485C66.7428 56.9662 52.0444 70.1824 34.6463 70.1824Z" fill="#FCF5F3"/>
</svg>
