<svg viewBox="0 0 69 75" fill="none" xmlns="http://www.w3.org/2000/svg">
<path d="M31.6137 30.866C31.6137 31.3218 31.9137 30.866 32.2138 30.4102C32.5138 29.9544 33.7138 27.9792 35.6639 24.4847C37.614 20.9902 38.8141 18.1035 38.6641 17.9515C38.5141 17.7996 38.2141 18.1035 37.9141 18.4073C37.614 18.7112 37.014 19.319 36.414 19.9267C35.8139 20.6864 35.3639 20.5344 34.7639 20.6864C34.0139 20.8383 32.8138 22.2057 32.2138 22.8134C31.4637 23.4212 30.5637 24.0289 29.6636 24.1809C28.7636 24.3328 28.6136 23.877 28.1636 24.0289C27.7135 24.1809 27.7135 24.7886 27.8635 25.2444C28.0135 25.7002 27.8635 25.8521 27.8635 26.7637C27.8635 27.6753 28.3136 28.435 28.9136 28.8908C29.3636 29.3466 29.2136 30.1063 29.5136 30.4102C29.8136 30.714 29.9636 29.0427 29.9636 27.9792C29.9636 26.9157 29.6636 25.8521 29.8136 25.7002C29.8136 25.5483 30.7137 25.3963 31.0137 25.0925C31.4637 24.7886 32.3638 24.1809 32.8138 23.877C33.2638 23.5731 33.2638 23.877 33.1138 24.0289C32.9638 24.3328 32.6638 24.7886 32.2138 25.2444C31.7637 25.7002 30.4137 26.0041 30.1137 26.0041C29.8136 26.0041 29.8136 26.3079 30.1137 26.4599C30.4137 26.6118 31.0137 26.6118 31.6137 26.4599C32.2138 26.3079 32.2138 27.0676 32.0638 27.9792C32.2138 28.8908 31.6137 30.5621 31.6137 30.866ZM17.063 32.6892C17.513 33.145 18.5631 34.9682 18.4131 34.6643C18.263 34.3604 18.8631 32.5372 17.663 30.4102C16.463 28.2831 16.1629 27.5234 15.7129 25.2444C15.2629 23.1173 14.3628 21.2941 15.8629 19.9267C17.363 18.5593 18.5631 16.5841 19.0131 14.609C19.4631 12.4819 21.1132 10.9626 22.9133 8.68356C24.7134 6.40454 25.0134 6.10068 25.0134 6.10068C24.5634 6.70841 23.8133 9.13936 23.3633 10.3548C22.9133 11.5703 20.9632 14.3051 20.0631 15.8245C19.1631 17.3438 17.213 20.0786 16.913 22.8134C16.763 25.3963 18.8631 28.5869 19.1631 29.8024C19.4631 31.0179 18.7131 34.2085 19.4631 36.6395C20.2131 38.9185 22.3133 41.1975 22.7633 41.5014C23.2133 41.8052 23.0633 41.5014 22.9133 41.3494C22.7633 41.1975 22.4633 40.8936 22.0132 39.8301C21.5632 38.7665 21.7132 37.3991 22.1632 35.7279C22.4633 34.0566 22.7633 32.6892 22.6133 31.0179C22.4633 29.3466 21.1132 26.4599 20.6632 24.6367C20.2131 22.8134 21.2632 21.1422 23.0633 18.1035C24.7134 15.0648 25.0134 12.6338 25.3134 10.6587C25.6134 8.83549 26.5135 6.10067 29.2136 5.03714C30.8637 4.4294 35.2139 5.341 37.464 6.70841C39.1141 7.77195 39.8642 8.83549 40.1642 10.051C40.4642 11.4184 39.5641 12.33 39.1141 13.6974C38.6641 15.0648 38.2141 16.5841 38.8141 16.5841C39.2641 16.5841 45.2644 11.4184 46.6145 10.051C47.2145 9.29129 48.1146 7.46808 46.9145 5.79681C45.8645 4.27746 38.2141 3.66973 36.714 1.54265C35.3639 -0.280564 31.9137 -0.280564 31.0137 0.479108C30.1137 1.08684 28.0135 2.91006 26.0634 3.51779C24.1133 4.27746 22.0132 4.58133 19.3131 5.94874C16.613 7.31615 16.763 8.98743 16.463 10.2029C16.1629 11.4184 16.0129 14.609 13.7628 17.9515C11.5127 21.2941 12.8628 23.7251 13.9128 27.2195C14.9629 30.5621 16.463 32.2334 17.063 32.6892ZM44.8144 2.60619C49.4646 4.12553 50.3647 8.22775 48.8646 10.051C47.9646 11.1145 46.9145 11.7222 44.6644 13.0897C42.4143 14.609 41.5142 15.3687 40.7642 15.8245C40.0142 16.4322 39.5641 17.1919 41.2142 16.7361C41.3642 16.7361 51.1147 14.609 52.3148 13.8493C54.4149 12.7858 55.0149 11.8742 55.3149 10.5068C55.615 8.98743 53.5149 6.70841 52.4648 5.49294C50.3647 3.06199 45.4144 0.479108 45.2644 0.479108C42.7143 -0.432498 39.7141 0.327173 37.314 0.479108C37.014 0.479108 37.164 0.93491 37.314 1.08684C39.4141 2.60619 42.1143 1.84652 44.8144 2.60619ZM36.114 12.0261C36.714 12.7858 36.114 15.5206 36.864 15.3687C37.464 15.2167 39.7141 10.9626 38.9641 9.44323C38.2141 7.92389 33.1138 6.25261 32.2138 6.10068C28.7636 5.94874 27.7135 8.68356 27.2635 10.9626C27.1135 12.0261 23.8133 19.319 23.9633 19.167L30.7137 11.2664C31.9137 10.2029 35.2139 10.8106 36.114 12.0261ZM47.3645 55.3274C42.8643 61.2528 35.0639 61.1009 29.9636 63.228C23.8133 65.6589 19.6131 70.065 18.5631 71.2805C16.613 73.2556 14.3629 72.6479 13.0128 72.6479C11.6627 72.4959 10.4627 71.8882 10.0126 71.7363C9.5626 71.5843 8.21253 71.7363 8.21253 71.7363C8.21253 71.7363 8.21253 71.1285 8.66256 70.8247C9.11258 70.5208 10.0126 70.3689 11.6627 70.065C13.3128 69.7611 14.5129 68.8495 15.1129 68.3937C15.7129 67.9379 15.4129 67.786 14.9629 67.9379C14.5129 68.0899 13.3128 68.5457 11.0627 68.8495C8.81256 69.1534 8.06252 69.0015 7.16248 69.6092C6.26243 70.2169 6.41244 71.7363 6.26243 72.1921C6.11243 72.6479 5.96242 72.6479 5.6624 72.4959C5.36239 72.1921 5.21238 71.2805 5.5124 70.3689C5.81241 69.4573 7.01247 68.8495 8.21253 68.5457C9.4126 68.2418 12.1127 68.0899 14.9629 66.5705C23.3633 62.0125 27.1135 58.518 34.4639 52.7445C42.4143 46.5152 49.4646 43.0207 55.0149 40.2859C58.4651 38.6146 68.5156 37.3991 68.5156 37.3991C68.5156 37.3991 67.0155 36.3356 65.5155 36.1837C64.6154 36.0317 63.7154 36.0317 62.8153 36.0317C64.1654 35.2721 67.7656 32.5372 68.2156 28.8908C68.9656 24.0289 62.6653 20.0786 62.6653 15.8245C62.5153 5.64487 52.4648 4.27746 52.9148 4.58133C54.8649 5.64487 56.665 8.07582 57.115 9.29129C57.7151 11.7222 55.765 14.3051 52.9148 15.2167C51.5648 15.6725 43.9144 17.3438 42.8643 18.4073C41.8143 19.4709 43.9144 24.9405 42.5643 27.2195C41.2142 29.4986 33.5638 33.2969 32.6638 34.3604C31.7637 35.424 30.8637 35.1201 30.4137 35.1201C30.1137 35.1201 30.4137 35.5759 31.3137 35.7279C32.2138 35.8798 33.8638 35.424 34.7639 34.8162C35.6639 34.2085 37.014 35.424 37.014 36.1837C37.014 36.9433 36.114 37.0953 34.3139 38.1588C32.9638 39.0704 29.0636 36.6395 28.7636 35.7279C28.4636 34.9682 29.5136 35.1201 30.2637 34.2085C31.0137 33.2969 29.8136 33.145 29.3636 33.2969C28.9136 33.4488 28.6136 33.145 28.1636 32.993C27.7135 32.8411 27.1135 32.993 26.8135 33.2969C26.5135 33.6008 26.8135 33.9046 25.7634 34.0566C24.7134 34.2085 25.1634 32.8411 25.4634 31.4737C25.7634 30.1063 26.5135 26.3079 26.3635 25.8521C26.2135 25.3963 26.2135 25.5483 25.7634 25.0925C25.3134 24.6367 25.3134 23.877 25.3134 22.5096C25.3134 21.1422 25.3134 18.7112 25.3134 18.7112C25.3134 18.7112 24.5634 19.9267 24.1133 22.0538C23.8133 24.1809 25.1634 25.3963 25.3134 25.7002C25.3134 26.0041 25.3134 26.7637 24.5634 30.5621C23.9633 34.3604 24.7134 35.1201 25.4634 35.7279C26.2135 36.3356 29.8136 38.3107 29.8136 38.3107V39.982C29.8136 39.982 28.0135 40.5898 26.3635 41.6533C24.7134 42.7168 24.1133 44.8439 23.9633 45.4516C23.8133 46.0594 24.2634 46.0594 24.2634 46.0594C24.2634 46.0594 24.7134 45.6036 25.9134 44.54C27.2635 43.4765 30.1137 42.8688 30.4137 42.8688C30.7137 42.8688 30.8637 43.0207 30.4137 43.3246C29.9636 43.6284 28.7636 44.54 26.2135 46.5152C23.6633 48.4903 23.3633 50.9213 23.3633 51.3771C23.3633 51.9848 23.6633 51.529 23.6633 51.529C23.6633 51.529 23.9633 50.7693 24.8634 49.8577C25.7634 49.0981 27.7135 48.4903 29.8136 48.1865C32.0638 47.8826 32.3638 47.2749 32.9638 46.2113C33.5638 45.1478 35.5139 43.3246 35.8139 43.0207C36.264 42.8688 36.264 42.8688 36.114 43.0207C35.964 43.1726 35.8139 43.3246 34.6139 44.54C33.4138 45.7555 33.2638 47.2749 33.2638 47.2749C33.2638 47.2749 33.8638 46.3633 35.3639 45.2997C36.714 44.2362 40.1642 43.1726 41.0642 42.8688C41.9643 42.5649 41.9643 42.7168 41.6642 42.8688C41.5142 43.0207 41.3642 43.0207 40.4642 43.6284C39.4141 44.0842 35.964 46.3633 31.3137 49.7058C26.6635 53.2003 22.7633 57.4545 19.0131 60.3412C15.2629 63.228 12.4127 64.4434 10.9127 64.7473C9.41259 65.0512 7.76251 64.1396 5.5124 63.9876C3.26228 63.8357 1.91221 65.355 1.61219 65.8108C1.31218 66.1147 1.31218 66.4186 1.61219 66.4186C1.7622 66.4186 2.21223 65.9628 2.51224 65.9628C2.81226 65.9628 2.81225 66.1147 2.81225 66.1147C2.81225 66.1147 2.66225 66.1147 2.06222 66.5705C1.46218 66.8744 0.562139 67.786 0.112116 69.3053C-0.337907 70.6727 0.712149 72.7998 0.712149 72.7998C0.712149 72.7998 1.46219 72.7998 2.36223 73.2556C3.26228 73.7114 3.86231 73.8633 4.31233 74.1672C4.76235 74.4711 5.21238 74.4711 6.11242 74.1672C7.01247 73.8633 8.96257 73.8633 10.3126 74.0153C11.6627 74.0153 16.763 75.3827 20.0631 73.1037C30.4137 63.8357 41.0642 64.5954 44.9644 63.228C52.9148 60.3412 51.5648 49.4019 65.5155 50.9213C65.0655 50.0097 54.2649 46.3633 47.3645 55.3274ZM61.0152 34.6643C64.1654 31.4737 64.6154 28.1311 64.7654 26.7637C65.3655 29.8024 63.7154 34.0566 62.3653 36.0317C61.1653 36.0317 60.1152 36.1837 59.0651 36.4875C59.8152 36.0317 60.4152 35.424 61.0152 34.6643ZM59.5152 24.4847C61.9153 28.7389 58.6151 33.7527 57.8651 34.3604C57.2651 34.9682 56.065 35.5759 55.1649 36.0317C56.665 34.6643 58.0151 32.8411 58.4651 30.866C58.9151 28.7389 58.1651 26.7637 57.115 24.3328C56.965 23.877 53.2148 18.2554 52.7648 17.9515C53.5149 18.1035 58.3151 21.598 59.5152 24.4847ZM47.8146 19.9267C47.6646 19.6228 51.8648 27.5234 50.9647 31.1698C49.6147 36.7914 44.8144 40.5898 44.8144 40.5898C44.8144 40.5898 47.2145 36.0317 47.5145 35.1201C47.8146 34.3604 50.2147 26.0041 47.8146 19.9267ZM38.9641 35.7279C40.4642 34.8162 45.1144 27.5234 45.2644 27.9792C45.4144 28.435 45.7145 30.4102 45.1144 31.7776C44.3644 33.6008 38.9641 35.7279 38.9641 35.7279ZM2.81225 70.6727C2.51224 71.2805 1.7622 70.2169 1.91221 69.6092C1.91221 69.4573 2.96226 67.0263 5.36239 67.634C5.96242 67.634 3.7123 68.5457 2.81225 70.6727Z" fill="#FCF5F3"/>
</svg>
