<svg viewBox="0 0 36 76" fill="none" xmlns="http://www.w3.org/2000/svg">
<path d="M35.2223 15.6481C35.2223 15.3443 35.2223 15.0404 35.2223 14.8885C35.2223 6.68463 27.4225 0 17.8226 0C8.2228 0 0.57293 6.68463 0.57293 14.8885C0.57293 15.1923 0.57293 15.4962 0.57293 15.6481C-1.22704 27.802 1.47291 41.1712 5.07285 51.502C9.42278 63.8078 10.6228 72.9232 10.6228 72.9232C13.3227 75.8098 22.4726 75.8098 25.0225 72.9232C25.0225 72.9232 26.2225 63.6559 30.5724 51.502C34.3224 41.1712 37.0223 27.802 35.2223 15.6481ZM7.02282 15.6481C7.17282 17.3193 7.47281 18.8385 7.92281 20.2058C6.87282 20.9654 6.12284 21.725 5.67284 22.6366C3.87287 20.6616 2.82289 18.3827 2.67289 15.8H7.02282V15.6481ZM17.8226 3.49424C20.9726 3.49424 23.8225 5.77309 25.3225 8.96348C23.3725 9.7231 20.8226 10.3308 17.8226 10.3308C14.8227 10.3308 12.1227 9.7231 10.1728 8.96348C11.8227 5.77309 14.6727 3.49424 17.8226 3.49424ZM8.52279 8.05194C7.62281 7.29232 7.02282 6.68463 6.87282 5.92501C8.67279 4.25385 11.0728 3.19039 13.6227 2.43077C11.5227 3.64616 9.72277 5.62117 8.52279 8.05194ZM21.8726 2.43077C24.5725 3.03847 26.9725 4.25385 28.9224 5.92501C28.6225 6.68463 28.0225 7.44425 27.1225 8.05194C25.9225 5.62117 24.1225 3.64616 21.8726 2.43077ZM17.8226 12.0019C20.9726 12.0019 23.6725 11.3943 25.9225 10.4827C26.2225 11.5462 26.5225 12.7616 26.5225 13.977H8.97279C8.97279 12.7616 9.27278 11.5462 9.57278 10.4827C11.8227 11.5462 14.6727 12.0019 17.8226 12.0019ZM26.5225 15.6481C26.5225 16.8635 26.2225 18.0789 25.9225 19.1423C23.6725 18.2308 20.9726 17.6231 17.8226 17.6231C14.6727 17.6231 11.8227 18.2308 9.57278 19.1423C9.27278 18.0789 8.97279 16.8635 8.97279 15.6481H26.5225ZM17.8226 26.1308C14.6727 26.1308 11.8227 24.0039 10.3228 20.6616C12.2727 19.75 14.8227 19.2943 17.9726 19.2943C20.9726 19.2943 23.5225 19.902 25.4725 20.6616C23.8225 24.0039 20.9726 26.1308 17.8226 26.1308ZM8.52279 21.725C9.72277 24.1558 11.5227 26.1308 13.6227 27.1943C11.0728 26.5866 8.67279 25.3712 6.87282 23.7C7.02282 23.0924 7.62281 22.3327 8.52279 21.725ZM27.1225 21.725C28.0225 22.3327 28.6225 23.0924 28.9224 23.852C26.9725 25.5231 24.5725 26.7385 21.8726 27.3462C24.1225 26.1308 25.9225 24.1558 27.1225 21.725ZM30.1224 22.6366C29.6724 21.725 28.7725 20.9654 27.7225 20.2058C28.1725 18.8385 28.4725 17.3193 28.6225 15.8H33.1224C32.9724 18.2308 31.9224 20.6616 30.1224 22.6366ZM33.1224 13.977H28.6225C28.4725 12.4577 28.1725 10.9385 27.7225 9.57117C28.7725 8.81156 29.6724 8.05194 30.1224 7.1404C31.9224 9.1154 32.9724 11.5462 33.1224 13.977ZM5.67284 7.1404C6.12284 8.05194 6.87282 8.81156 7.92281 9.57117C7.47281 10.9385 7.17282 12.4577 7.02282 14.1289H2.5229C2.82289 11.5462 3.87287 9.1154 5.67284 7.1404ZM20.0726 54.9963C19.0226 53.7809 22.6226 51.3501 22.6226 47.8559C22.6226 44.5136 20.0726 42.5386 17.8226 42.5386C15.7227 42.5386 13.0227 44.3616 13.0227 47.8559C13.0227 51.1982 16.6227 53.7809 15.5727 54.9963C12.1227 56.5155 7.17282 43.4501 4.47286 32.2078C3.72288 28.8654 3.12289 25.3712 2.82289 22.1808C5.82284 26.5866 11.3727 29.6251 17.8226 29.6251C24.2725 29.6251 29.8224 26.5866 32.8224 22.1808C32.5224 25.3712 31.9224 28.7135 31.1724 32.2078C28.4725 43.602 23.6725 56.5155 20.0726 54.9963Z" fill="#FCF5F3"/>
</svg>
