<svg viewBox="0 0 34 76" fill="none" xmlns="http://www.w3.org/2000/svg">
<path d="M16.3512 66.5481L19.8014 63.9653L14.701 65.0288L16.3512 66.5481Z" fill="#FCF6F4"/>
<path d="M6.15039 58.0399C6.15039 58.0399 6.45041 59.7112 6.45041 59.8632C6.45041 59.8632 6.90044 62.2941 8.70057 59.5593C8.70057 59.5593 12.9009 54.2415 11.4008 49.2275L6.15039 58.0399Z" fill="#FCF6F4"/>
<path d="M16.6511 58.0395L15.451 55.6084C15.451 55.6084 13.5009 58.4954 14.2509 59.711C14.1009 59.711 15.151 60.7746 16.6511 58.0395Z" fill="#FCF6F4"/>
<path d="M17.7012 49.2278C17.7012 49.2278 18.0012 48.4681 17.5512 48.1643C17.5512 48.1643 16.9512 48.0124 16.2011 49.2278C16.2011 49.2278 15.6011 50.4432 16.2011 51.6587C16.3511 51.6587 17.5512 49.9875 17.7012 49.2278Z" fill="#FCF6F4"/>
<path d="M23.2517 57.736C24.3017 60.015 25.2018 60.9266 25.8018 60.4708C26.5519 60.1669 26.5519 58.3437 25.8018 56.5205C25.0518 54.5454 24.1517 53.4819 23.1017 53.9377C22.5016 54.2416 22.3516 55.9128 23.2517 57.736Z" fill="#FCF6F4"/>
<path d="M19.3514 3.64646L16.6512 0L14.101 3.7984L0 23.854V70.4983L7.65055 75.5122H25.6518L33.3024 70.4983V23.702L19.3514 3.64646ZM15.0011 48.7715C16.6512 46.1886 18.1513 46.0366 18.1513 46.0366C19.6514 45.7327 19.6514 47.2521 19.6514 47.2521C19.9514 49.6831 17.2512 53.0257 17.2512 53.0257C17.4012 53.6334 18.3013 55.0008 18.3013 55.0008C18.7513 54.2412 19.5014 51.8102 19.5014 51.8102L21.9016 50.5947C21.6015 52.7218 19.5014 56.976 19.5014 56.976C19.6514 57.1279 21.0015 59.5589 21.0015 59.5589L18.6013 60.7744L18.0013 59.7109C15.1511 63.8131 13.501 62.9015 13.501 62.9015C12.3009 62.4457 12.6009 59.5589 12.6009 59.5589C12.9009 56.976 15.0011 53.7854 15.0011 53.7854C13.2009 51.3544 15.0011 48.7715 15.0011 48.7715ZM13.2009 54.8489C11.4008 60.7744 8.10058 63.5093 8.10058 63.5093C7.0505 64.4209 6.15044 63.9651 5.70041 63.3573C5.25038 62.5976 5.10036 61.686 5.10036 61.686C4.95035 61.2302 4.35031 57.8876 4.35031 57.8876L12.3009 44.3653C14.551 50.5947 13.2009 54.8489 13.2009 54.8489ZM13.801 71.258L11.7008 69.8906L14.551 67.7635L12.0009 65.6364L7.05051 66.6999L4.95036 65.1806L22.8016 61.3822L24.3017 63.0535L13.801 71.258ZM28.202 60.6225L27.752 60.1667C27.752 60.9264 27.602 61.2302 27.602 61.2302C27.1519 63.0535 25.8018 62.9015 25.8018 62.9015C23.4017 62.9015 21.7515 58.9512 21.7515 58.9512C19.8014 54.697 21.4515 52.5699 21.4515 52.5699C22.2016 51.6583 23.1016 51.8102 23.1016 51.8102L21.3015 48.4676L22.3516 46.9482L28.802 58.9512L28.202 60.6225ZM25.0518 25.5253C23.8517 24.3098 21.0015 22.1827 16.9512 22.1827C12.7509 22.1827 10.0507 24.3098 8.85063 25.5253C7.0505 23.5501 5.25037 22.6385 3.60026 22.4865L13.951 7.90067C14.551 8.50842 15.6011 8.96423 16.8012 8.96423C18.0013 8.96423 19.0514 8.50842 19.8014 7.90067L30.1521 22.6385C28.352 22.6385 26.7019 23.702 25.0518 25.5253Z" fill="#FCF5F3"/>
</svg>
