<svg viewBox="0 0 35 79" fill="none" xmlns="http://www.w3.org/2000/svg">
<path d="M27.598 0C27.598 0 20.3985 7.13997 22.4984 21.1161C25.0482 36.9152 36.5973 45.4224 33.5975 59.7023C31.0477 71.7035 19.7985 77.4763 6.44952 78.8435C6.44952 78.8435 25.3481 73.3746 28.0479 60.31C30.8977 47.2453 20.6985 42.0803 18.5986 29.7752C15.5989 11.8493 27.598 0 27.598 0Z" fill="#FCF5F3"/>
<path d="M16.3488 22.7871C16.3488 22.7871 15.2988 29.6232 21.4484 41.3206C27.598 53.0179 28.9479 60.9174 20.0985 69.2727C20.0985 69.2727 22.3484 66.2344 21.2984 58.7907C20.3985 51.3469 13.349 42.2321 12.599 35.5479C11.8491 28.8637 16.3488 22.7871 16.3488 22.7871Z" fill="#FCF5F3"/>
<path d="M11.0992 35.5479C11.0992 35.5479 8.54937 40.2573 9.14933 44.3591C10.6492 53.4741 16.4988 65.4756 14.3989 71.0965C13.049 74.5906 10.0493 75.6541 10.0493 75.6541C10.0493 75.6541 18.2987 73.3753 19.6486 65.9313C21.4484 54.8414 12.4491 47.7012 11.0992 35.5479Z" fill="#FCF5F3"/>
<path d="M9.89926 53.9297C9.89926 53.9297 8.39937 55.6008 7.34945 58.9429C5.69957 64.7157 8.99934 71.0961 7.49945 72.4633C4.34968 75.1978 0 73.071 0 73.071C0 73.071 4.0497 76.717 7.79942 75.1978C11.5491 73.6787 13.499 70.7923 12.5991 65.7791C11.9991 60.9178 9.89926 53.9297 9.89926 53.9297Z" fill="#FCF5F3"/>
</svg>
