<svg width="40" height="40" viewBox="0 0 40 40" fill="none" xmlns="http://www.w3.org/2000/svg">
<path d="M13.3549 13.2775L13.4798 14.017L13.3549 13.2775ZM15.4657 12.2936L15.0529 11.6675L15.0529 11.6675L15.4657 12.2936ZM14.3039 12.9928L14.6067 13.6789L14.3039 12.9928ZM15.4657 27.7063L15.0529 28.3325H15.0529L15.4657 27.7063ZM14.3039 27.0072L14.6067 26.321L14.3039 27.0072ZM13.3549 26.7225L13.4798 25.9829L13.3549 26.7225ZM8.45313 26.2969L8.13821 26.9776L8.45313 26.2969ZM6.04634 21.3712L5.29773 21.4168L6.04634 21.3712ZM6.61135 24.564L7.2716 24.2082L6.61135 24.564ZM15.7576 27.8988L16.1705 27.2726H16.1705L15.7576 27.8988ZM22.2667 30.7665L22.0245 30.0567L22.2667 30.7665ZM24.5503 23.4738L25.2994 23.5086L24.5503 23.4738ZM23.0396 30.3732L23.4708 30.9869L23.0396 30.3732ZM15.7576 12.1011L16.1705 12.7273L16.1705 12.7273L15.7576 12.1011ZM22.2667 9.23341L22.0245 9.94321L22.2667 9.23341ZM24.5503 16.5261L23.8011 16.5609L24.5503 16.5261ZM23.0396 9.62669L23.4708 9.01307L23.0396 9.62669ZM8.45313 13.703L8.13821 13.0223L8.45313 13.703ZM5.95109 15.0802C5.75461 15.4449 5.89094 15.8997 6.2556 16.0962C6.62025 16.2927 7.07513 16.1564 7.2716 15.7917L5.95109 15.0802ZM6.76176 20.6407C6.74741 20.2267 6.4002 19.9027 5.98624 19.9171C5.57227 19.9314 5.24831 20.2786 5.26266 20.6926L6.76176 20.6407ZM16.1705 27.2726L15.8786 27.0802L15.0529 28.3325L15.3448 28.5249L16.1705 27.2726ZM15.8786 12.9197L16.1705 12.7273L15.3448 11.475L15.0529 11.6675L15.8786 12.9197ZM23.8011 16.5609C23.8704 18.0529 23.9166 19.3109 23.9166 20H25.4166C25.4166 19.2707 25.3686 17.9787 25.2994 16.4913L23.8011 16.5609ZM23.9166 20C23.9166 20.689 23.8704 21.947 23.8011 23.439L25.2994 23.5086C25.3686 22.0212 25.4166 20.7293 25.4166 20H23.9166ZM12.0001 14.0833C12.6584 14.0833 13.0728 14.0857 13.4798 14.017L13.23 12.5379C12.9756 12.5809 12.7073 12.5833 12.0001 12.5833V14.0833ZM15.0529 11.6675C14.4625 12.0567 14.2371 12.2024 14.0011 12.3066L14.6067 13.6789C14.9843 13.5123 15.329 13.2821 15.8786 12.9197L15.0529 11.6675ZM13.4798 14.017C13.868 13.9514 14.2465 13.8379 14.6067 13.6789L14.0011 12.3066C13.7546 12.4154 13.4956 12.4931 13.23 12.5379L13.4798 14.017ZM15.8786 27.0802C15.329 26.7178 14.9843 26.4877 14.6067 26.321L14.0011 27.6933C14.2371 27.7975 14.4625 27.9432 15.0529 28.3325L15.8786 27.0802ZM12.0001 27.4166C12.7073 27.4166 12.9756 27.419 13.23 27.462L13.4798 25.9829C13.0728 25.9142 12.6584 25.9166 12.0001 25.9166V27.4166ZM14.6067 26.321C14.2465 26.1621 13.868 26.0485 13.4798 25.9829L13.23 27.462C13.4956 27.5069 13.7546 27.5846 14.0011 27.6933L14.6067 26.321ZM12.0001 25.9166C10.0984 25.9166 9.38214 25.9003 8.76806 25.6162L8.13821 26.9776C9.12233 27.4329 10.2379 27.4166 12.0001 27.4166V25.9166ZM5.29773 21.4168C5.3926 22.9732 5.43848 23.9683 5.95109 24.9197L7.2716 24.2082C6.94892 23.6093 6.89657 22.9926 6.79496 21.3255L5.29773 21.4168ZM8.76806 25.6162C8.18517 25.3466 7.57624 24.7736 7.2716 24.2082L5.95109 24.9197C6.40962 25.7707 7.26088 26.5717 8.13821 26.9776L8.76806 25.6162ZM15.3448 28.5249C17.0218 29.6307 18.3418 30.5029 19.4223 31.0277C20.5047 31.5535 21.5129 31.8162 22.5089 31.4763L22.0245 30.0567C21.5974 30.2024 21.0464 30.1491 20.0777 29.6785C19.1071 29.207 17.8841 28.4025 16.1705 27.2726L15.3448 28.5249ZM23.8011 23.439C23.7066 25.4726 23.6376 26.9218 23.448 27.9751C23.259 29.025 22.9787 29.4993 22.6083 29.7596L23.4708 30.9869C24.3306 30.3826 24.7122 29.4188 24.9243 28.2409C25.1357 27.0665 25.207 25.4982 25.2994 23.5086L23.8011 23.439ZM22.5089 31.4763C22.849 31.3603 23.1768 31.1935 23.4708 30.9869L22.6083 29.7596C22.4306 29.8845 22.2301 29.9865 22.0245 30.0567L22.5089 31.4763ZM16.1705 12.7273C17.8841 11.5974 19.1071 10.7929 20.0777 10.3214C21.0464 9.85086 21.5974 9.79748 22.0245 9.94321L22.5089 8.5236C21.5129 8.18369 20.5047 8.44638 19.4223 8.97219C18.3418 9.49706 17.0218 10.3693 15.3448 11.475L16.1705 12.7273ZM25.2994 16.4913C25.207 14.5017 25.1357 12.9335 24.9243 11.759C24.7122 10.5811 24.3306 9.61735 23.4708 9.01307L22.6083 10.2403C22.9787 10.5006 23.259 10.975 23.448 12.0248C23.6376 13.0782 23.7066 14.5273 23.8011 16.5609L25.2994 16.4913ZM22.0245 9.94321C22.2301 10.0134 22.4306 10.1154 22.6083 10.2403L23.4708 9.01307C23.1768 8.80645 22.849 8.63966 22.5089 8.5236L22.0245 9.94321ZM12.0001 12.5833C10.2379 12.5833 9.12233 12.567 8.13821 13.0223L8.76806 14.3837C9.38214 14.0996 10.0984 14.0833 12.0001 14.0833V12.5833ZM8.13821 13.0223C7.26088 13.4282 6.40962 14.2292 5.95109 15.0802L7.2716 15.7917C7.57624 15.2263 8.18517 14.6534 8.76806 14.3837L8.13821 13.0223ZM6.79496 21.3255C6.78074 21.0923 6.76947 20.8632 6.76176 20.6407L5.26266 20.6926C5.27088 20.9299 5.28283 21.1723 5.29773 21.4168L6.79496 21.3255Z" fill="white"/>
<path d="M33.8636 17.8636C34.1565 17.5707 34.1565 17.0958 33.8636 16.8029C33.5707 16.5101 33.0959 16.5101 32.803 16.8029L33.8636 17.8636ZM27.4697 22.1363C27.1768 22.4291 27.1768 22.904 27.4697 23.1969C27.7626 23.4898 28.2374 23.4898 28.5303 23.1969L27.4697 22.1363ZM28.5303 16.8029C28.2374 16.51 27.7625 16.51 27.4696 16.8029C27.1768 17.0958 27.1768 17.5707 27.4696 17.8636L28.5303 16.8029ZM32.803 23.1969C33.0959 23.4898 33.5707 23.4898 33.8636 23.1969C34.1565 22.904 34.1565 22.4291 33.8636 22.1362L32.803 23.1969ZM32.803 16.8029L27.4697 22.1363L28.5303 23.1969L33.8636 17.8636L32.803 16.8029ZM27.4696 17.8636L32.803 23.1969L33.8636 22.1362L28.5303 16.8029L27.4696 17.8636Z" fill="white"/>
</svg>
