<svg width="50" height="50" viewBox="0 0 50 50" fill="none" xmlns="http://www.w3.org/2000/svg">
<path d="M22.5834 20.8333V29.1666H24.0834V20.8333H22.5834ZM19.0834 29.1666V20.8333H17.5834V29.1666H19.0834ZM20.8334 30.9166C20.4348 30.9166 20.1735 30.9162 19.9725 30.9025C19.7783 30.8892 19.6958 30.8661 19.6492 30.8468L19.0752 32.2326C19.335 32.3402 19.5998 32.3805 19.8704 32.399C20.1343 32.417 20.4554 32.4166 20.8334 32.4166V30.9166ZM17.5834 29.1666C17.5834 29.5446 17.583 29.8657 17.601 30.1296C17.6194 30.4002 17.6597 30.665 17.7673 30.9247L19.1532 30.3507C19.1339 30.3042 19.1107 30.2217 19.0975 30.0275C19.0838 29.8265 19.0834 29.5651 19.0834 29.1666H17.5834ZM19.6492 30.8468C19.4246 30.7538 19.2462 30.5753 19.1532 30.3507L17.7673 30.9247C18.0126 31.5169 18.4831 31.9874 19.0752 32.2326L19.6492 30.8468ZM22.5834 29.1666C22.5834 29.5651 22.583 29.8265 22.5693 30.0275C22.556 30.2217 22.5329 30.3042 22.5136 30.3507L23.8994 30.9247C24.007 30.665 24.0473 30.4002 24.0658 30.1296C24.0838 29.8657 24.0834 29.5446 24.0834 29.1666H22.5834ZM20.8334 32.4166C21.2114 32.4166 21.5325 32.417 21.7964 32.399C22.067 32.3805 22.3318 32.3402 22.5915 32.2326L22.0175 30.8468C21.971 30.8661 21.8885 30.8892 21.6942 30.9025C21.4933 30.9162 21.2319 30.9166 20.8334 30.9166V32.4166ZM22.5136 30.3507C22.4206 30.5753 22.2421 30.7538 22.0175 30.8468L22.5915 32.2326C23.1837 31.9874 23.6541 31.5169 23.8994 30.9247L22.5136 30.3507ZM20.8334 19.0833C21.2319 19.0833 21.4933 19.0837 21.6942 19.0974C21.8885 19.1106 21.971 19.1338 22.0175 19.153L22.5915 17.7672C22.3318 17.6596 22.067 17.6193 21.7964 17.6009C21.5325 17.5828 21.2114 17.5833 20.8334 17.5833V19.0833ZM24.0834 20.8333C24.0834 20.4552 24.0838 20.1342 24.0658 19.8703C24.0473 19.5997 24.007 19.3349 23.8994 19.0751L22.5136 19.6491C22.5329 19.6956 22.556 19.7781 22.5693 19.9724C22.583 20.1734 22.5834 20.4347 22.5834 20.8333H24.0834ZM22.0175 19.153C22.2421 19.2461 22.4206 19.4245 22.5136 19.6491L23.8994 19.0751C23.6541 18.4829 23.1837 18.0125 22.5915 17.7672L22.0175 19.153ZM20.8334 17.5833C20.4554 17.5833 20.1343 17.5828 19.8704 17.6009C19.5998 17.6193 19.335 17.6596 19.0752 17.7672L19.6492 19.153C19.6958 19.1338 19.7783 19.1106 19.9725 19.0974C20.1735 19.0837 20.4348 19.0833 20.8334 19.0833V17.5833ZM19.0834 20.8333C19.0834 20.4347 19.0838 20.1734 19.0975 19.9724C19.1107 19.7781 19.1339 19.6957 19.1532 19.6491L17.7673 19.0751C17.6597 19.3349 17.6194 19.5997 17.601 19.8703C17.583 20.1342 17.5834 20.4552 17.5834 20.8333H19.0834ZM19.0752 17.7672C18.4831 18.0125 18.0126 18.4829 17.7673 19.0751L19.1532 19.6491C19.2462 19.4245 19.4246 19.2461 19.6492 19.153L19.0752 17.7672Z" fill="white"/>
<path d="M30.9166 20.8333V29.1666H32.4166V20.8333H30.9166ZM27.4166 29.1666V20.8333H25.9166V29.1666H27.4166ZM29.1666 30.9166C28.7681 30.9166 28.5067 30.9162 28.3058 30.9025C28.1115 30.8892 28.029 30.8661 27.9825 30.8468L27.4085 32.2326C27.6682 32.3402 27.933 32.3805 28.2036 32.399C28.4675 32.417 28.7886 32.4166 29.1666 32.4166V30.9166ZM25.9166 29.1666C25.9166 29.5446 25.9162 29.8657 25.9342 30.1296C25.9527 30.4002 25.993 30.665 26.1006 30.9247L27.4864 30.3507C27.4671 30.3042 27.444 30.2217 27.4307 30.0275C27.417 29.8265 27.4166 29.5651 27.4166 29.1666H25.9166ZM27.9825 30.8468C27.7579 30.7538 27.5794 30.5753 27.4864 30.3507L26.1006 30.9247C26.3459 31.5169 26.8163 31.9874 27.4085 32.2326L27.9825 30.8468ZM30.9166 29.1666C30.9166 29.5651 30.9162 29.8265 30.9025 30.0275C30.8893 30.2217 30.8661 30.3042 30.8468 30.3507L32.2327 30.9247C32.3403 30.665 32.3806 30.4002 32.399 30.1296C32.417 29.8657 32.4166 29.5446 32.4166 29.1666H30.9166ZM29.1666 32.4166C29.5446 32.4166 29.8657 32.417 30.1296 32.399C30.4002 32.3805 30.665 32.3402 30.9248 32.2326L30.3508 30.8468C30.3042 30.8661 30.2217 30.8892 30.0275 30.9025C29.8265 30.9162 29.5652 30.9166 29.1666 30.9166V32.4166ZM30.8468 30.3507C30.7538 30.5753 30.5754 30.7538 30.3508 30.8468L30.9248 32.2326C31.5169 31.9874 31.9874 31.5169 32.2327 30.9247L30.8468 30.3507ZM29.1666 19.0833C29.5652 19.0833 29.8265 19.0837 30.0275 19.0974C30.2217 19.1106 30.3042 19.1338 30.3508 19.153L30.9248 17.7672C30.665 17.6596 30.4002 17.6193 30.1296 17.6009C29.8657 17.5828 29.5446 17.5833 29.1666 17.5833V19.0833ZM32.4166 20.8333C32.4166 20.4552 32.417 20.1342 32.399 19.8703C32.3806 19.5997 32.3403 19.3349 32.2327 19.0751L30.8468 19.6491C30.8661 19.6956 30.8893 19.7781 30.9025 19.9724C30.9162 20.1734 30.9166 20.4347 30.9166 20.8333H32.4166ZM30.3508 19.153C30.5754 19.2461 30.7538 19.4245 30.8468 19.6491L32.2327 19.0751C31.9874 18.4829 31.5169 18.0125 30.9248 17.7672L30.3508 19.153ZM29.1666 17.5833C28.7886 17.5833 28.4675 17.5828 28.2036 17.6009C27.933 17.6193 27.6682 17.6596 27.4085 17.7672L27.9825 19.153C28.029 19.1338 28.1115 19.1106 28.3058 19.0974C28.5067 19.0837 28.7681 19.0833 29.1666 19.0833V17.5833ZM27.4166 20.8333C27.4166 20.4347 27.417 20.1734 27.4307 19.9724C27.444 19.7781 27.4671 19.6957 27.4864 19.6491L26.1006 19.0751C25.993 19.3349 25.9527 19.5997 25.9342 19.8703C25.9162 20.1342 25.9166 20.4552 25.9166 20.8333H27.4166ZM27.4085 17.7672C26.8163 18.0125 26.3459 18.4829 26.1006 19.0751L27.4864 19.6491C27.5794 19.4245 27.7579 19.2461 27.9825 19.153L27.4085 17.7672Z" fill="white"/>
<path d="M16.6667 10.563C19.1182 9.14487 21.9643 8.33325 25 8.33325C34.2048 8.33325 41.6667 15.7952 41.6667 24.9999C41.6667 34.2047 34.2048 41.6666 25 41.6666C15.7953 41.6666 8.33337 34.2047 8.33337 24.9999C8.33337 21.9642 9.14499 19.118 10.5631 16.6666" stroke="white" stroke-width="1.5" stroke-linecap="round"/>
</svg>
