<svg width="50" height="50" viewBox="0 0 50 50" fill="none" xmlns="http://www.w3.org/2000/svg">
<path d="M26.7102 20.4584L27.1412 19.8446L26.7102 20.4584ZM26.7102 29.542L27.1412 30.1558L26.7102 29.542ZM20.8334 25.0002H20.0834H20.8334ZM25.4033 19.6115L25.0136 20.2523L25.4033 19.6115ZM20.9007 22.9632L20.1519 22.9199L20.9007 22.9632ZM25.4033 30.3888L25.0136 29.748L25.4033 30.3888ZM20.9007 27.0371L20.1519 27.0804L20.9007 27.0371ZM28.1461 21.5582L27.672 22.1393L28.1461 21.5582ZM28.1461 28.4422L28.6201 29.0233L28.1461 28.4422ZM25.0136 20.2523C25.4683 20.5288 25.9014 20.8068 26.2792 21.0721L27.1412 19.8446C26.7282 19.5545 26.2656 19.2581 25.7929 18.9707L25.0136 20.2523ZM26.2792 21.0721C26.7102 21.3748 27.1856 21.7426 27.672 22.1393L28.6201 20.977C28.1173 20.5668 27.6117 20.175 27.1412 19.8446L26.2792 21.0721ZM27.672 27.861C27.1856 28.2577 26.7102 28.6255 26.2792 28.9282L27.1412 30.1558C27.6117 29.8254 28.1173 29.4335 28.6201 29.0233L27.672 27.861ZM26.2792 28.9282C25.9014 29.1935 25.4683 29.4715 25.0136 29.748L25.7929 31.0297C26.2656 30.7423 26.7282 30.4458 27.1412 30.1558L26.2792 28.9282ZM21.6494 26.9938C21.6087 26.2901 21.5834 25.607 21.5834 25.0002H20.0834C20.0834 25.6455 20.1102 26.3593 20.1519 27.0804L21.6494 26.9938ZM21.5834 25.0002C21.5834 24.3933 21.6087 23.7103 21.6494 23.0065L20.1519 22.9199C20.1102 23.6411 20.0834 24.3548 20.0834 25.0002H21.5834ZM25.7929 18.9707C24.9288 18.4452 24.1818 17.9865 23.5459 17.7581C23.2136 17.6387 22.8609 17.5618 22.4961 17.5889C22.1174 17.6171 21.7761 17.7536 21.4705 17.983L22.371 19.1826C22.4661 19.1112 22.5371 19.09 22.6073 19.0848C22.6913 19.0786 22.824 19.0926 23.0388 19.1698C23.4969 19.3344 24.0903 19.6909 25.0136 20.2523L25.7929 18.9707ZM21.6494 23.0065C21.7235 21.725 21.7763 20.8405 21.9011 20.1967C22.0235 19.5649 22.1889 19.3194 22.371 19.1826L21.4705 17.983C20.8511 18.448 20.5793 19.1331 20.4285 19.9113C20.28 20.6775 20.2235 21.6823 20.1519 22.9199L21.6494 23.0065ZM25.0136 29.748C24.0903 30.3094 23.4969 30.666 23.0388 30.8305C22.824 30.9077 22.6913 30.9218 22.6073 30.9155C22.5371 30.9103 22.4661 30.8891 22.371 30.8177L21.4705 32.0173C21.7761 32.2468 22.1174 32.3832 22.4961 32.4114C22.8609 32.4385 23.2136 32.3616 23.5459 32.2422C24.1818 32.0138 24.9288 31.5551 25.7929 31.0297L25.0136 29.748ZM20.1519 27.0804C20.2235 28.318 20.28 29.3228 20.4285 30.089C20.5793 30.8672 20.8511 31.5523 21.4705 32.0173L22.371 30.8177C22.1889 30.681 22.0235 30.4354 21.9011 29.8037C21.7763 29.1598 21.7235 28.2753 21.6494 26.9938L20.1519 27.0804ZM27.672 22.1393C28.5889 22.8873 29.1982 23.3879 29.5925 23.8471C29.9546 24.2688 30.0834 24.597 30.0834 25.0002L31.5834 25.0002C31.5834 24.1536 31.2642 23.4914 30.7306 22.8699C30.2291 22.286 29.4947 21.6905 28.6201 20.977L27.672 22.1393ZM28.6201 29.0233C29.4947 28.3099 30.2291 27.7143 30.7306 27.1304C31.2642 26.5089 31.5834 25.8468 31.5834 25.0002L30.0834 25.0002C30.0834 25.4034 29.9546 25.7315 29.5925 26.1532C29.1982 26.6124 28.5889 27.113 27.672 27.861L28.6201 29.0233Z" fill="white"/>
<path d="M16.6667 10.563C19.1182 9.14487 21.9643 8.33325 25 8.33325C34.2048 8.33325 41.6667 15.7952 41.6667 24.9999C41.6667 34.2047 34.2048 41.6666 25 41.6666C15.7953 41.6666 8.33337 34.2047 8.33337 24.9999C8.33337 21.9642 9.14499 19.118 10.5631 16.6666" stroke="white" stroke-width="1.5" stroke-linecap="round"/>
</svg>
