<svg viewBox="0 0 71 71" fill="none" xmlns="http://www.w3.org/2000/svg">
<path d="M44.7032 0L19.0513 25.9812C19.8014 25.9812 20.4014 26.1332 21.1515 26.2851C21.9015 26.437 22.5016 26.7409 23.1016 27.1967C23.7017 27.6525 24.1517 28.1083 24.4517 28.7161C24.7517 29.3238 25.0518 29.9316 25.0518 30.6913V40.7191C25.0518 41.4788 24.9017 42.2385 24.4517 42.6943C24.1517 43.3021 23.5517 43.7579 23.1016 44.0617C22.5016 44.5175 21.9015 44.8214 21.1515 44.9734C20.4014 45.1253 19.6514 45.2772 18.9013 45.2772C18.1513 45.2772 17.4012 45.1253 16.6512 44.9734C15.9011 44.8214 15.3011 44.5175 14.701 44.0617C14.101 43.7579 13.6509 43.1501 13.2009 42.6943C12.9009 42.0866 12.6009 41.4788 12.6009 40.7191V32.3626L0 45.1253V70.9546H25.8018L51.3036 45.1253H44.1031V26.1332H55.0539V28.7161H47.8534V34.3378H54.1538V36.9207H47.8534V42.5424H54.0038L70.355 25.9812V0.151937H44.7032V0ZM40.9529 45.1253H37.5027L31.9522 33.73V45.1253H28.352V26.1332H31.9522L37.5027 37.5284V26.1332H41.1029V45.1253H40.9529Z" fill="#FCF5F3"/>
<path d="M16.3512 30.5397V40.5677C16.3512 41.1755 16.6512 41.7833 17.1012 42.0871C17.5513 42.391 18.1513 42.543 18.9013 42.543C19.5014 42.543 20.1014 42.391 20.7014 42.0871C21.1515 41.7833 21.4515 41.3274 21.4515 40.5677V30.5397C21.4515 29.9319 21.1515 29.3242 20.7014 29.0203C20.2514 28.7164 19.6514 28.5645 18.9013 28.5645C18.3013 28.5645 17.7013 28.7164 17.1012 29.0203C16.6512 29.4761 16.3512 29.9319 16.3512 30.5397Z" fill="#FCF6F4"/>
</svg>
