<svg width="40" height="40" viewBox="0 0 40 40" fill="none" xmlns="http://www.w3.org/2000/svg">
<path d="M31.2428 11.5199C30.9776 11.2017 30.5047 11.1587 30.1865 11.4238C29.8683 11.689 29.8253 12.1619 30.0905 12.4801L31.2428 11.5199ZM30.0905 27.5199C29.8253 27.8381 29.8683 28.311 30.1865 28.5762C30.5047 28.8413 30.9776 28.7983 31.2428 28.4801L30.0905 27.5199ZM30.6666 12C30.0905 12.4801 30.0902 12.4798 30.0899 12.4795C30.0899 12.4794 30.0896 12.4791 30.0895 12.479C30.0892 12.4786 30.0889 12.4783 30.0887 12.478C30.0882 12.4774 30.0878 12.477 30.0876 12.4767C30.0871 12.4761 30.0871 12.4761 30.0876 12.4767C30.0885 12.4778 30.0913 12.4813 30.0958 12.4871C30.1047 12.4987 30.1205 12.5196 30.1423 12.55C30.1857 12.6108 30.2529 12.7098 30.336 12.8484C30.5022 13.1254 30.7329 13.5615 30.9666 14.1692C31.4334 15.3829 31.9166 17.2916 31.9166 20H33.4166C33.4166 17.1084 32.8999 15.0171 32.3666 13.6308C32.1004 12.9385 31.831 12.4246 31.6222 12.0766C31.5179 11.9027 31.4288 11.7704 31.3629 11.6781C31.3299 11.632 31.3028 11.5959 31.2824 11.5696C31.2722 11.5564 31.2638 11.5457 31.2571 11.5374C31.2538 11.5333 31.2509 11.5298 31.2485 11.5268C31.2473 11.5254 31.2463 11.5241 31.2453 11.5229C31.2448 11.5223 31.2444 11.5218 31.244 11.5213C31.2437 11.521 31.2435 11.5207 31.2434 11.5205C31.2431 11.5202 31.2428 11.5199 30.6666 12ZM31.9166 20C31.9166 22.7084 31.4334 24.6171 30.9666 25.8308C30.7329 26.4385 30.5022 26.8746 30.336 27.1516C30.2529 27.2902 30.1857 27.3892 30.1423 27.45C30.1205 27.4804 30.1047 27.5013 30.0958 27.5129C30.0913 27.5187 30.0885 27.5222 30.0876 27.5233C30.0871 27.5239 30.0871 27.5239 30.0876 27.5233C30.0878 27.523 30.0882 27.5226 30.0887 27.522C30.0889 27.5217 30.0892 27.5214 30.0895 27.521C30.0896 27.5209 30.0899 27.5206 30.0899 27.5205C30.0902 27.5202 30.0905 27.5199 30.6666 28C31.2428 28.4801 31.2431 28.4798 31.2434 28.4795C31.2435 28.4793 31.2437 28.479 31.244 28.4787C31.2444 28.4782 31.2448 28.4777 31.2453 28.4771C31.2463 28.4759 31.2473 28.4746 31.2485 28.4732C31.2509 28.4702 31.2538 28.4667 31.2571 28.4626C31.2638 28.4543 31.2722 28.4436 31.2824 28.4304C31.3028 28.4041 31.3299 28.368 31.3629 28.3219C31.4288 28.2296 31.5179 28.0973 31.6222 27.9234C31.831 27.5754 32.1004 27.0615 32.3666 26.3692C32.8999 24.9829 33.4166 22.8916 33.4166 20H31.9166Z" fill="white"/>
<path d="M28.6556 15.6358C28.4545 15.2737 27.9979 15.1432 27.6358 15.3444C27.2737 15.5455 27.1432 16.0021 27.3444 16.3642L28.6556 15.6358ZM27.3444 23.6358C27.1432 23.9979 27.2737 24.4545 27.6358 24.6556C27.9979 24.8568 28.4545 24.7263 28.6556 24.3642L27.3444 23.6358ZM28 16C27.3444 16.3642 27.3442 16.3639 27.344 16.3636C27.344 16.3635 27.3438 16.3632 27.3437 16.363C27.3435 16.3626 27.3433 16.3623 27.3431 16.3619C27.3427 16.3612 27.3424 16.3606 27.3421 16.36C27.3415 16.3589 27.341 16.3581 27.3407 16.3575C27.3401 16.3565 27.3402 16.3565 27.3408 16.3578C27.3421 16.3603 27.3458 16.3675 27.3515 16.3795C27.3629 16.4034 27.3825 16.4466 27.4078 16.5098C27.4583 16.6361 27.5316 16.8428 27.6068 17.1363C27.7572 17.7228 27.9167 18.6601 27.9167 20H29.4167C29.4167 18.5399 29.2428 17.4772 29.0598 16.7637C28.9684 16.4072 28.875 16.1389 28.8005 15.9527C28.7633 15.8596 28.7308 15.7872 28.7058 15.7346C28.6933 15.7083 28.6826 15.687 28.6741 15.6705C28.6699 15.6623 28.6662 15.6553 28.6631 15.6495C28.6616 15.6466 28.6602 15.644 28.6589 15.6417C28.6583 15.6406 28.6577 15.6395 28.6571 15.6385C28.6569 15.638 28.6566 15.6376 28.6564 15.6371C28.6562 15.6369 28.656 15.6365 28.656 15.6364C28.6558 15.6361 28.6556 15.6358 28 16ZM27.9167 20C27.9167 21.3399 27.7572 22.2772 27.6068 22.8637C27.5316 23.1572 27.4583 23.3639 27.4078 23.4902C27.3825 23.5534 27.3629 23.5966 27.3515 23.6205C27.3458 23.6325 27.3421 23.6397 27.3408 23.6422C27.3402 23.6435 27.3401 23.6435 27.3407 23.6425C27.341 23.6419 27.3415 23.6411 27.3421 23.64C27.3424 23.6394 27.3427 23.6388 27.3431 23.6381C27.3433 23.6377 27.3435 23.6374 27.3437 23.637C27.3438 23.6368 27.344 23.6365 27.344 23.6364C27.3442 23.6361 27.3444 23.6358 28 24C28.6556 24.3642 28.6558 24.3639 28.656 24.3636C28.656 24.3635 28.6562 24.3631 28.6564 24.3629C28.6566 24.3624 28.6569 24.362 28.6571 24.3615C28.6577 24.3605 28.6583 24.3594 28.6589 24.3583C28.6602 24.356 28.6616 24.3534 28.6631 24.3505C28.6662 24.3447 28.6699 24.3377 28.6741 24.3295C28.6826 24.313 28.6933 24.2917 28.7058 24.2654C28.7308 24.2128 28.7633 24.1404 28.8005 24.0473C28.875 23.8611 28.9684 23.5928 29.0598 23.2363C29.2428 22.5228 29.4167 21.4601 29.4167 20H27.9167Z" fill="white"/>
<path d="M13.3549 13.2775L13.4798 14.017L13.3549 13.2775ZM15.4657 12.2936L15.0529 11.6675L15.0529 11.6675L15.4657 12.2936ZM14.3039 12.9928L14.6067 13.6789L14.3039 12.9928ZM15.4657 27.7063L15.0529 28.3325H15.0529L15.4657 27.7063ZM14.3039 27.0072L14.6067 26.321L14.3039 27.0072ZM13.3549 26.7225L13.4798 25.9829L13.3549 26.7225ZM8.45313 26.2969L8.13821 26.9776L8.45313 26.2969ZM6.04634 21.3712L5.29773 21.4168L6.04634 21.3712ZM6.61135 24.564L7.2716 24.2082L6.61135 24.564ZM15.7576 27.8988L16.1705 27.2726H16.1705L15.7576 27.8988ZM22.2667 30.7665L22.0245 30.0567L22.2667 30.7665ZM24.5503 23.4738L25.2994 23.5086L24.5503 23.4738ZM23.0396 30.3732L23.4708 30.9869L23.0396 30.3732ZM15.7576 12.1011L16.1705 12.7273L16.1705 12.7273L15.7576 12.1011ZM22.2667 9.23341L22.0245 9.94321L22.2667 9.23341ZM24.5503 16.5261L23.8011 16.5609L24.5503 16.5261ZM23.0396 9.62669L23.4708 9.01307L23.0396 9.62669ZM8.45313 13.703L8.13821 13.0223L8.45313 13.703ZM5.95109 15.0802C5.75461 15.4449 5.89094 15.8997 6.2556 16.0962C6.62025 16.2927 7.07513 16.1564 7.2716 15.7917L5.95109 15.0802ZM6.76176 20.6407C6.74741 20.2267 6.4002 19.9027 5.98624 19.9171C5.57227 19.9314 5.24831 20.2786 5.26266 20.6926L6.76176 20.6407ZM16.1705 27.2726L15.8786 27.0802L15.0529 28.3325L15.3448 28.5249L16.1705 27.2726ZM15.8786 12.9197L16.1705 12.7273L15.3448 11.475L15.0529 11.6675L15.8786 12.9197ZM23.8011 16.5609C23.8704 18.0529 23.9166 19.3109 23.9166 20H25.4166C25.4166 19.2707 25.3686 17.9787 25.2994 16.4913L23.8011 16.5609ZM23.9166 20C23.9166 20.689 23.8704 21.947 23.8011 23.439L25.2994 23.5086C25.3686 22.0212 25.4166 20.7293 25.4166 20H23.9166ZM12.0001 14.0833C12.6584 14.0833 13.0728 14.0857 13.4798 14.017L13.23 12.5379C12.9756 12.5809 12.7073 12.5833 12.0001 12.5833V14.0833ZM15.0529 11.6675C14.4625 12.0567 14.2371 12.2024 14.0011 12.3066L14.6067 13.6789C14.9843 13.5123 15.329 13.2821 15.8786 12.9197L15.0529 11.6675ZM13.4798 14.017C13.868 13.9514 14.2465 13.8379 14.6067 13.6789L14.0011 12.3066C13.7546 12.4154 13.4956 12.4931 13.23 12.5379L13.4798 14.017ZM15.8786 27.0802C15.329 26.7178 14.9843 26.4877 14.6067 26.321L14.0011 27.6933C14.2371 27.7975 14.4625 27.9432 15.0529 28.3325L15.8786 27.0802ZM12.0001 27.4166C12.7073 27.4166 12.9756 27.419 13.23 27.462L13.4798 25.9829C13.0728 25.9142 12.6584 25.9166 12.0001 25.9166V27.4166ZM14.6067 26.321C14.2465 26.1621 13.868 26.0485 13.4798 25.9829L13.23 27.462C13.4956 27.5069 13.7546 27.5846 14.0011 27.6933L14.6067 26.321ZM12.0001 25.9166C10.0984 25.9166 9.38214 25.9003 8.76806 25.6162L8.13821 26.9776C9.12233 27.4329 10.2379 27.4166 12.0001 27.4166V25.9166ZM5.29773 21.4168C5.3926 22.9732 5.43848 23.9683 5.95109 24.9197L7.2716 24.2082C6.94892 23.6093 6.89657 22.9926 6.79496 21.3255L5.29773 21.4168ZM8.76806 25.6162C8.18517 25.3466 7.57624 24.7736 7.2716 24.2082L5.95109 24.9197C6.40962 25.7707 7.26088 26.5717 8.13821 26.9776L8.76806 25.6162ZM15.3448 28.5249C17.0218 29.6307 18.3418 30.5029 19.4223 31.0277C20.5047 31.5535 21.5129 31.8162 22.5089 31.4763L22.0245 30.0567C21.5974 30.2024 21.0464 30.1491 20.0777 29.6785C19.1071 29.207 17.8841 28.4025 16.1705 27.2726L15.3448 28.5249ZM23.8011 23.439C23.7066 25.4726 23.6376 26.9218 23.448 27.9751C23.259 29.025 22.9787 29.4993 22.6083 29.7596L23.4708 30.9869C24.3306 30.3826 24.7122 29.4188 24.9243 28.2409C25.1357 27.0665 25.207 25.4982 25.2994 23.5086L23.8011 23.439ZM22.5089 31.4763C22.849 31.3603 23.1768 31.1935 23.4708 30.9869L22.6083 29.7596C22.4306 29.8845 22.2301 29.9865 22.0245 30.0567L22.5089 31.4763ZM16.1705 12.7273C17.8841 11.5974 19.1071 10.7929 20.0777 10.3214C21.0464 9.85086 21.5974 9.79748 22.0245 9.94321L22.5089 8.5236C21.5129 8.18369 20.5047 8.44638 19.4223 8.97219C18.3418 9.49706 17.0218 10.3693 15.3448 11.475L16.1705 12.7273ZM25.2994 16.4913C25.207 14.5017 25.1357 12.9335 24.9243 11.759C24.7122 10.5811 24.3306 9.61735 23.4708 9.01307L22.6083 10.2403C22.9787 10.5006 23.259 10.975 23.448 12.0248C23.6376 13.0782 23.7066 14.5273 23.8011 16.5609L25.2994 16.4913ZM22.0245 9.94321C22.2301 10.0134 22.4306 10.1154 22.6083 10.2403L23.4708 9.01307C23.1768 8.80645 22.849 8.63966 22.5089 8.5236L22.0245 9.94321ZM12.0001 12.5833C10.2379 12.5833 9.12233 12.567 8.13821 13.0223L8.76806 14.3837C9.38214 14.0996 10.0984 14.0833 12.0001 14.0833V12.5833ZM8.13821 13.0223C7.26088 13.4282 6.40962 14.2292 5.95109 15.0802L7.2716 15.7917C7.57624 15.2263 8.18517 14.6534 8.76806 14.3837L8.13821 13.0223ZM6.79496 21.3255C6.78074 21.0923 6.76947 20.8632 6.76176 20.6407L5.26266 20.6926C5.27088 20.9299 5.28283 21.1723 5.29773 21.4168L6.79496 21.3255Z" fill="white"/>
</svg>
